<svg viewBox="0 0 800 800" xml:space="preserve" xmlns="http://www.w3.org/2000/svg"><defs><clipPath id="a"><path d="M0 600h600V0H0z"/></clipPath></defs><g clip-path="url(#a)" fill-rule="evenodd" transform="matrix(1.3333 0 0 -1.3333 0 800)"><path d="M98.111 475.14a3.382 3.382 0 0 0 6.551 1.684l74.381-291.7 293.13-72.836a3.382 3.382 0 1 0-1.628-6.566l-297.05 73.809-.498 1.955z" fill="#fc0"/><path d="m173.98 180.03 295.96-73.541a1.51 1.51 0 0 1 1.82 1.099 1.51 1.51 0 0 1-1.099 1.822l-294.22 73.106-74.66 292.79a1.503 1.503 0 0 1-1.826 1.076 1.506 1.506 0 0 1-1.081-1.832z" fill="#ffd940"/><path d="M144.38 193.96v.001c1.822 3.424 6.868 6.15 11.213 6.062l24.644-.504c4.347-.086 6.411-2.96 4.589-6.384s-6.868-6.152-11.213-6.063l-24.646.503c-4.345.087-6.409 2.961-4.587 6.385" fill="#1a1a1a"/><path d="M147.04 192.26c.865 1.624 3.26 2.919 5.321 2.877l24.417-.5c2.063-.04 3.043-1.404 2.178-3.029-.865-1.626-3.259-2.918-5.322-2.876l-24.416.498c-2.064.042-3.043 1.405-2.178 3.03" fill="#333"/><path d="M154.39 203.97c1.822 3.424 6.869 6.151 11.215 6.062l24.642-.504c4.347-.087 6.411-2.96 4.589-6.383v-.001c-1.822-3.424-6.868-6.152-11.213-6.063-8.217.166-16.43.335-24.644.503-4.347.087-6.412 2.961-4.589 6.386" fill="#1a1a1a"/><path d="M157.04 202.26c.865 1.624 3.26 2.919 5.321 2.879 8.139-.169 16.278-.334 24.417-.5 2.063-.042 3.043-1.406 2.178-3.03-.865-1.625-3.259-2.92-5.322-2.876-8.139.165-16.278.331-24.416.498-2.064.04-3.043 1.404-2.178 3.029" fill="#333"/><path d="M164.39 213.98c1.82 3.424 6.869 6.151 11.212 6.063l24.644-.504c4.348-.087 6.411-2.961 4.59-6.385v-.001c-1.822-3.423-6.868-6.151-11.215-6.063-8.215.168-16.428.337-24.645.503-4.344.089-6.411 2.963-4.586 6.387" fill="#1a1a1a"/><path d="M167.05 212.27c.865 1.624 3.26 2.919 5.321 2.877 8.139-.167 16.277-.332 24.416-.5 2.064-.041 3.044-1.404 2.179-3.028-.865-1.625-3.259-2.92-5.322-2.878l-24.416.498c-2.063.042-3.043 1.406-2.178 3.031" fill="#333"/><path d="M174.4 223.98v.002c1.821 3.423 6.87 6.152 11.213 6.064l24.644-.504c4.348-.089 6.411-2.961 4.59-6.386-1.824-3.424-6.868-6.151-11.215-6.063-8.215.168-16.428.337-24.644.503-4.345.089-6.412 2.963-4.588 6.384" fill="#1a1a1a"/><path d="M177.06 222.27c.865 1.624 3.259 2.919 5.321 2.877l24.416-.5c2.063-.04 3.044-1.403 2.179-3.027-.866-1.627-3.261-2.92-5.323-2.878-8.138.167-16.277.332-24.416.498-2.062.042-3.043 1.405-2.177 3.03" fill="#333"/><path d="M184.4 233.98v.002c1.823 3.422 6.868 6.152 11.215 6.063l24.644-.503c4.347-.089 6.411-2.963 4.589-6.386.001 0 .001 0 0 0-1.823-3.424-6.868-6.151-11.215-6.063-8.214.168-16.429.337-24.643.503-4.346.088-6.412 2.961-4.59 6.384" fill="#1a1a1a"/><path d="M187.06 232.28c.865 1.624 3.257 2.919 5.32 2.875l24.417-.498c2.061-.04 3.042-1.404 2.179-3.027-.866-1.627-3.261-2.92-5.323-2.879-8.138.168-16.277.333-24.417.498-2.061.043-3.042 1.406-2.176 3.031" fill="#333"/><path d="M194.41 243.99h.001c1.822 3.424 6.867 6.154 11.215 6.063l24.644-.501c4.345-.09 6.411-2.963 4.588-6.386-1.822-3.424-6.869-6.153-11.214-6.063l-24.643.5c-4.347.091-6.412 2.963-4.591 6.387" fill="#1a1a1a"/><path d="M197.07 242.28c.864 1.625 3.258 2.918 5.321 2.877l24.417-.498c2.06-.043 3.04-1.406 2.176-3.031-.863-1.624-3.259-2.917-5.32-2.875l-24.417.498c-2.061.042-3.042 1.403-2.177 3.029" fill="#333"/><path d="M187.52 150.82c3.423 1.823 6.152 6.868 6.065 11.213l-.505 24.647c-.087 4.344-2.961 6.409-6.385 4.587h-.001c-3.424-1.823-6.15-6.869-6.062-11.213l.504-24.645c.087-4.346 2.961-6.411 6.384-4.589" fill="#1a1a1a"/><path d="M185.82 153.48c1.624.865 2.919 3.26 2.877 5.322l-.499 24.417c-.041 2.061-1.404 3.042-3.028 2.177-1.626-.866-2.92-3.258-2.879-5.322l.499-24.416c.042-2.063 1.405-3.042 3.03-2.178" fill="#333"/><path d="M197.53 160.83c3.425 1.822 6.152 6.868 6.065 11.215l-.505 24.643c-.087 4.346-2.961 6.411-6.385 4.588h-.001c-3.424-1.822-6.15-6.868-6.062-11.212l.504-24.645c.086-4.347 2.96-6.411 6.384-4.589" fill="#1a1a1a"/><path d="M195.82 163.48c1.624.866 2.919 3.261 2.877 5.323l-.498 24.417c-.042 2.061-1.405 3.042-3.029 2.176-1.625-.865-2.92-3.257-2.876-5.321l.496-24.416c.042-2.061 1.405-3.042 3.03-2.179" fill="#333"/><path d="M207.53 170.83h.002c3.423 1.822 6.152 6.868 6.063 11.213-.166 8.217-.335 16.43-.503 24.644-.088 4.347-2.961 6.412-6.385 4.589h-.001c-3.424-1.822-6.151-6.868-6.063-11.215.168-8.214.336-16.427.502-24.644.089-4.345 2.963-6.411 6.385-4.587" fill="#1a1a1a"/><path d="M205.83 173.49c1.624.865 2.919 3.261 2.877 5.323-.166 8.138-.331 16.277-.499 24.416-.041 2.062-1.404 3.043-3.028 2.177-1.625-.865-2.92-3.258-2.878-5.321l.498-24.416c.042-2.064 1.405-3.044 3.03-2.179" fill="#333"/><path d="M217.54 180.84h.002c3.424 1.822 6.151 6.868 6.062 11.213l-.502 24.644c-.088 4.347-2.961 6.41-6.386 4.589-3.424-1.823-6.152-6.868-6.063-11.215.168-8.215.336-16.427.502-24.644.089-4.345 2.962-6.411 6.385-4.587" fill="#1a1a1a"/><path d="M215.84 183.5c1.624.865 2.919 3.261 2.877 5.322l-.499 24.416c-.041 2.063-1.404 3.043-3.028 2.178-1.626-.865-2.92-3.258-2.878-5.321l.498-24.416c.042-2.064 1.405-3.044 3.03-2.179" fill="#333"/><path d="M227.55 190.84c3.424 1.82 6.153 6.867 6.063 11.213l-.502 24.642c-.089 4.349-2.962 6.412-6.385 4.591-3.424-1.823-6.152-6.868-6.063-11.215l.502-24.644c.089-4.346 2.962-6.411 6.385-4.587" fill="#1a1a1a"/><path d="M225.84 193.5c1.624.865 2.919 3.259 2.876 5.32-.165 8.141-.332 16.28-.498 24.418-.041 2.062-1.406 3.042-3.031 2.178-1.624-.865-2.917-3.26-2.876-5.321l.498-24.417c.043-2.063 1.406-3.043 3.031-2.178" fill="#333"/><path d="M237.55 200.85c3.424 1.822 6.153 6.867 6.063 11.215l-.502 24.642c-.09 4.347-2.963 6.412-6.385 4.59-3.424-1.822-6.154-6.869-6.063-11.216l.501-24.642c.09-4.346 2.963-6.412 6.386-4.589" fill="#1a1a1a"/><path d="M235.84 203.51c1.624.864 2.919 3.259 2.879 5.32l-.498 24.418c-.044 2.06-1.408 3.04-3.032 2.177-1.625-.864-2.92-3.26-2.876-5.32l.498-24.417c.042-2.063 1.404-3.043 3.029-2.178" fill="#333"/><path d="M400.91 355.89c18.767-24.75 64.53-41.759 75.456-70.863 17.874-47.61-14.772-123.06 2.885-150.83 17.657-27.767 37.699-20.81 48.038-10.471 10.34 10.338 14.849 27.904-5.802 35.754 30.164 1.481 32.407-32.676 14.429-50.654-17.977-17.978-51.36-24.807-76.271 10.493-24.914 35.302 11.812 111.04-7.724 153.29-14.073 30.447-65.888 15.805-89.242 45.044l38.231 38.233" fill="#963"/><path d="M398.06 346.91c9.386-10.647 22.685-19.594 33.931-27.621 13.3-9.492 31.843-22.492 37.783-38.318 6.966-18.555 5.72-41.663 3.68-61.069-1.785-16.983-4.735-33.955-6.012-50.96-.928-12.392-1.301-28.724 5.617-39.603 6.8-10.693 16.786-20.836 30.198-21.527 9.301-.481 18.093 3.846 24.563 10.318a38.335 38.335 0 0 1 2.395 2.622c4.857 5.83 8.363 13.558 7.461 21.288a20.51 20.51 0 0 1-.662 3.293c3.397-4.927 3.958-11.432 2.991-17.197-1.177-7.017-4.66-13.745-9.689-18.775-8.468-8.467-20.232-13.869-32.325-13.464-15.997.533-28.465 10.816-37.34 23.393-6.744 9.554-8.197 22.335-8.226 33.724-.039 14.793 2.192 29.996 4.049 44.664 2.894 22.875 6.809 52.679-3.15 74.223a33.841 33.841 0 0 1-8.589 11.448c-11.899 10.357-31.134 12.748-46.083 16.264-11.835 2.786-23.924 6.547-32.558 15.331 10.655 10.657 21.311 21.313 31.966 31.966" fill="#ad7e4f"/><path d="M395.92 338.8c9.3-9.488 21.168-17.544 31.583-24.978 12.389-8.843 30.751-21.631 36.281-36.363 6.696-17.833 5.396-40.498 3.435-59.143-1.79-17.028-4.743-34.034-6.023-51.085-1.011-13.481-1.251-30.368 6.264-42.187 7.586-11.931 18.659-22.713 33.547-23.481 8.147-.421 15.948 2.35 22.456 7.03-7.458-6.647-17.295-10.839-27.364-10.501-14.608.487-25.952 10.162-34.029 21.605-6.18 8.758-7.426 20.879-7.453 31.3-.037 14.594 2.183 29.648 4.017 44.122 3.02 23.882 6.894 54.026-3.508 76.528a38.097 38.097 0 0 1-9.649 12.861c-12.738 11.084-31.963 13.443-47.889 17.19-9.573 2.254-19.648 5.189-27.394 11.375 8.575 8.576 17.15 17.153 25.726 25.727" fill="#c99b6d"/><path d="M476.61 102.11c6.419 4.553 10.069 14.417 11.829 20.749 1.137 4.096-3.203 6.446-4.222 4.481-2.934-5.656-8.584-13.984-14.307-19.881-3.808-3.927 1.731-8.876 6.7-5.349" fill="#fc0"/><path d="M476.61 102.11c6.419 4.553 10.069 14.417 11.829 20.749.652 2.349-.497 4.121-1.787 4.838a1.468 1.468 0 0 1-.521-.554c-3.275-6.001-9.482-14.882-15.667-21.242-.904-.932-1.342-1.895-1.416-2.794 1.131-2.095 4.458-3.202 7.562-.997" fill="#ffd940"/><path d="M484.22 97.857c5.756 5.369 8.103 13.297 10.033 20.573 1.426 5.366-4.498 8.785-6.067 3.771-1.967-6.282-6.014-13.39-11.575-20.088-3.493-4.208 3.152-8.412 7.609-4.256" fill="#fc0"/><path d="M484.22 97.857c5.756 5.369 8.103 13.297 10.033 20.573.731 2.752-.471 4.993-2.029 5.845-.96-.191-1.857-.975-2.371-2.52-2.163-6.48-6.477-13.853-12.329-20.842-1.017-1.215-1.238-2.411-.929-3.414 1.627-1.639 5.004-2.085 7.625.358" fill="#ffd940"/><path d="M491.36 95.374c4.947 6.121 8.535 12.696 9.425 20.172.658 5.515-5.182 7.961-6.537 2.884-1.854-6.952-4.57-13.847-10.033-20.573-3.449-4.245 3.314-7.223 7.145-2.483" fill="#fc0"/><path d="M491.36 95.374c4.947 6.121 8.535 12.696 9.425 20.172.334 2.792-1 4.797-2.573 5.436-.964-.346-1.841-1.264-2.33-2.863-2.245-7.343-5.39-14.666-11.394-21.931-.487-.59-.795-1.149-.957-1.667 1.074-2.006 5.162-2.448 7.829.853" fill="#ffd940"/><path d="M490.94 95.563c3.148 3.769 5.534 7.733 6.41 12.083.327 1.628-.346 2.718-1.222 3.01-1.29-3.518-7.327-12.819-9.743-15.963.521-1.104 2.857-1.16 4.555.87M484.02 98.789c3.309 3.959 5.816 8.123 6.736 12.695.342 1.708-.363 2.854-1.282 3.162-1.356-3.697-7.699-13.469-10.237-16.772.548-1.16 3-1.22 4.783.915M476.02 102.82c3.711 3.583 6.65 7.456 8.053 11.903.525 1.662-.055 2.876-.936 3.28-1.744-3.53-9.094-12.568-11.972-15.58.422-1.212 2.854-1.534 4.855.397" fill="#ffe98f"/><path d="M349.82 406.98c-24.75 18.768-41.758 64.532-70.862 75.457-47.61 17.874-123.06-14.772-150.83 2.885-27.766 17.657-20.809 37.699-10.47 48.038 10.339 10.34 27.907 14.848 35.754-5.8 1.482 30.164-32.676 32.405-50.653 14.427-17.978-17.978-24.808-51.36 10.493-76.273 35.302-24.912 111.04 11.813 153.29-7.722 30.446-14.074 15.806-65.888 45.044-89.242 12.745 12.743 25.489 25.486 38.232 38.23" fill="#963"/><path d="M340.83 404.13c-10.648 9.388-19.595 22.684-27.623 33.931-9.492 13.3-22.492 31.842-38.316 37.783-18.557 6.966-41.666 5.72-61.071 3.681-16.983-1.785-33.954-4.736-50.96-6.012-12.392-.929-28.724-1.302-39.603 5.616-10.693 6.8-20.836 16.785-21.528 30.198-.48 9.301 3.848 18.093 10.319 24.565a39.623 39.623 0 0 0 2.623 2.394c5.829 4.856 13.556 8.361 21.287 7.459a20.188 20.188 0 0 0 3.293-.662c-4.927 3.398-11.432 3.959-17.196 2.992-7.016-1.177-13.747-4.66-18.775-9.689-8.469-8.469-13.869-20.233-13.466-32.325.535-15.998 10.819-28.464 23.394-37.339 9.555-6.745 22.333-8.198 33.724-8.227 14.793-.039 29.996 2.192 44.664 4.048 22.875 2.894 52.681 6.81 74.224-3.149a33.848 33.848 0 0 0 11.447-8.588c10.357-11.9 12.748-31.135 16.264-46.081 2.785-11.838 6.548-23.927 15.331-32.561 10.656 10.655 21.313 21.31 31.968 31.966" fill="#ad7e4f"/><path d="M332.72 402c-9.49 9.3-17.544 21.168-24.98 31.584-8.842 12.388-21.63 30.75-36.361 36.28-17.833 6.695-40.497 5.395-59.144 3.435-17.027-1.789-34.032-4.744-51.085-6.023-13.482-1.011-30.367-1.252-42.185 6.264-11.932 7.587-22.714 18.658-23.482 33.546-.421 8.147 2.35 15.95 7.031 22.458-6.647-7.459-10.839-17.296-10.503-27.365.489-14.609 10.163-25.953 21.606-34.028 8.759-6.181 20.877-7.426 31.3-7.454 14.594-.038 29.647 2.184 44.122 4.016 23.883 3.02 54.024 6.895 76.527-3.507a38.068 38.068 0 0 0 12.862-9.649c11.085-12.738 13.443-31.963 17.19-47.889 2.254-9.573 5.189-19.647 11.376-27.394L332.72 402" fill="#c99b6d"/><path d="M96.038 482.68c4.555 6.418 14.418 10.068 20.749 11.827 4.097 1.138 6.446-3.202 4.481-4.221-5.657-2.934-13.984-8.583-19.882-14.307-3.926-3.809-8.876 1.73-5.348 6.701" fill="#fc0"/><path d="M96.038 482.68c4.555 6.418 14.418 10.068 20.749 11.827 2.349.653 4.122-.496 4.839-1.786a1.47 1.47 0 0 0-.557-.521c-5.998-3.276-14.881-9.481-21.242-15.667-.93-.905-1.893-1.342-2.79-1.416-2.098 1.13-3.203 4.457-.999 7.563" fill="#ffd940"/><path d="M91.782 490.29c5.369 5.756 13.297 8.104 20.572 10.034 5.368 1.424 8.786-4.499 3.772-6.068-6.282-1.966-13.391-6.014-20.088-11.574-4.208-3.494-8.412 3.15-4.256 7.608" fill="#fc0"/><path d="M91.782 490.29c5.369 5.756 13.297 8.104 20.572 10.034 2.753.731 4.994-.473 5.846-2.029-.191-.961-.974-1.857-2.52-2.372-6.478-2.163-13.853-6.476-20.842-12.328-1.215-1.018-2.412-1.24-3.415-.93-1.637 1.627-2.084 5.004.359 7.625" fill="#ffd940"/><path d="M89.299 497.44c6.122 4.948 12.698 8.536 20.172 9.426 5.513.657 7.96-5.182 2.883-6.537-6.95-1.854-13.847-4.571-20.572-10.034-4.246-3.449-7.224 3.315-2.483 7.145" fill="#fc0"/><path d="M89.299 497.44c6.122 4.948 12.698 8.536 20.172 9.426 2.793.333 4.798-1.001 5.437-2.574-.347-.964-1.264-1.841-2.865-2.33-7.342-2.246-14.664-5.39-21.931-11.394-.589-.487-1.148-.795-1.665-.957-2.007 1.073-2.449 5.162.852 7.829" fill="#ffd940"/><path d="M89.489 497.02c3.768 3.148 7.733 5.535 12.084 6.41 1.626.327 2.717-.345 3.01-1.22-3.52-1.291-12.822-7.328-15.964-9.744-1.104.521-1.162 2.857.87 4.554M92.714 490.1c3.959 3.307 8.123 5.815 12.695 6.734 1.708.344 2.854-.362 3.162-1.283-3.698-1.356-13.47-7.698-16.772-10.235-1.16.547-1.22 3 .915 4.784M96.742 482.1c3.582 3.712 7.454 6.65 11.902 8.052 1.661.525 2.877-.054 3.28-.936-3.532-1.745-12.57-9.095-15.581-11.971-1.212.421-1.534 2.853.399 4.855" fill="#ffe98f"/><path d="M343.26 413.56c-14.385-10.684-27.249-23.291-38.254-38.255-2.004-2.725-2.421-7.85 3.193-11.893 22.298-16.058 34.502-28.125 49.14-49.139 4.481-6.433 9.154-5.181 11.891-3.193 14.15 10.278 27.035 22.791 38.254 38.253 1.988 2.738 1.909 5.905 0 8.698-15.205 22.285-34.011 40.453-55.527 55.529-2.77 1.941-5.981 2.016-8.697 0" fill="#4f2d0a"/><path d="M333.61 396.48c-12.722-9.449-12.814-9.311-22.55-22.548-1.77-2.409-2.141-6.942 2.827-10.519 19.721-14.201 30.518-24.877 43.464-43.463 3.962-5.692 8.097-4.584 10.519-2.826 12.514 9.093 12.625 8.873 22.548 22.549 1.759 2.421 1.686 5.221 0 7.693-13.449 19.713-30.084 35.781-49.114 49.115-2.452 1.717-5.292 1.785-7.694-.001" fill="#613a12"/><path d="M327.86 381.78c-5.963-4.428-8.419-7.713-10.38-10.378-1.492-2.031-1.802-5.849 2.381-8.863 16.618-11.966 25.712-20.96 36.621-36.619 3.339-4.795 6.824-3.862 8.862-2.381 2.42 1.759 5.993 4.337 10.378 10.379 1.48 2.039 1.421 4.401 0 6.482-11.331 16.607-25.348 30.147-41.38 41.38-2.064 1.448-4.459 1.501-6.482 0" fill="#7a5127"/><path d="m172.05 186.24 267.69 267.69c2.242 2.24 5.908 2.24 8.15 0v-.001c2.24-2.242 2.24-5.908 0-8.149L180.2 178.09c-2.241-2.242-5.907-2.242-8.148 0h-.001c-2.24 2.24-2.24 5.906 0 8.147" fill="#c30"/><path d="M171.98 186.15c2.241 2.241 5.873 2.241 8.114 0a5.737 5.737 0 1 0-8.114 0" fill="#e35526"/><path d="m475.16 481.37-15.993-38.042-15.993-38.041-22.048 22.049-22.049 22.048 38.041 15.992z" fill="#fc0"/><path d="m475.16 481.37-15.993-38.042-15.993-38.041-22.048 22.049z" fill="#d6ab00"/></g></svg>