<svg xmlns="http://www.w3.org/2000/svg" style="isolation:isolate" width="450" height="450"><defs><clipPath id="a"><path d="M0 0h450v450H0z"/></clipPath></defs><g clip-path="url(#a)"><path d="M393.006 57 171.64 278.366l-19.002-18.958L317.086 69.644 393.006 57Z" fill="#C5CAE9"/><path d="M393.006 57 171.64 278.366l18.958 19.002L380.361 132.92 393.006 57Z" fill="#9FA8DA"/><path d="m187.423 332.144-69.562-69.588a13.389 13.389 0 0 1 0-18.967 13.388 13.388 0 0 1 18.958 0l69.598 69.589c5.095 5.268 5.022 13.65-.165 18.829-5.186 5.178-13.567 5.24-18.829.137Zm-82.206 56.927-44.282-44.256c-5.247-5.237-5.255-13.737-.018-18.984 5.238-5.247 13.737-5.255 18.985-.018l44.282 44.282a13.388 13.388 0 0 1 0 18.967 13.389 13.389 0 0 1-18.967 0v.009Z" fill="#FFB300"/><path d="m133.68 278.366 18.958 19.002-50.595 50.595-18.967-18.993 50.604-50.604Z" fill="#EF6C00"/><path d="m152.638 297.368 19.002 18.957-50.604 50.605-18.993-18.967 50.595-50.595Z" fill="#D44B00"/></g></svg>