<svg xmlns="http://www.w3.org/2000/svg" xmlns:xlink="http://www.w3.org/1999/xlink" width="480" height="640" viewBox="0 0 127 169.333"><defs><linearGradient xlink:href="#a" id="c" x1="59.918" y1="79.81" x2="58.632" y2="80.545" gradientUnits="userSpaceOnUse"/><linearGradient id="a"><stop style="stop-color:#ff9100;stop-opacity:1" offset="0"/><stop offset=".2" style="stop-color:#ff980f;stop-opacity:1"/><stop style="stop-color:#c26f00;stop-opacity:1" offset="1"/></linearGradient><linearGradient xlink:href="#b" id="d" x1="229.509" y1="309.038" x2="223.482" y2="314.216" gradientUnits="userSpaceOnUse"/><linearGradient id="b"><stop style="stop-color:#fff;stop-opacity:1" offset="0"/><stop style="stop-color:#c7b7a1;stop-opacity:1" offset="1"/></linearGradient></defs><path style="fill:url(#c);fill-opacity:1;stroke:none;stroke-width:.25250497px;stroke-linecap:butt;stroke-linejoin:miter;stroke-opacity:1" d="m61.471 85.068-6.422-12.307.667-.12 6.843 11.72s.037.303-.375.577c-.412.274-.713.13-.713.13z" transform="matrix(8.8652 0 0 8.8652 -448.71 -596.633)"/><path d="m56.564 75.662.097.19s.139-.237.248-.255c.11-.017.535 0 .535 0l-.12-.202-.545-.066z" style="fill:#bd7007;fill-opacity:1;stroke:none;stroke-width:.26458332px;stroke-linecap:butt;stroke-linejoin:miter;stroke-opacity:1" transform="matrix(8.8652 0 0 8.8652 -448.71 -596.633)"/><path style="opacity:1;fill:#ffeb3b;fill-opacity:1;fill-rule:nonzero;stroke:#fadd60;stroke-width:2.37085819;stroke-linecap:butt;stroke-linejoin:miter;stroke-miterlimit:4;stroke-dasharray:none;stroke-dashoffset:0;stroke-opacity:1" d="M2173.164-2956.81c.253 3.418-16.552 8.133-18.356 11.047-1.805 2.915 1.466 20.06-1.707 21.356-3.173 1.298-12.85-13.227-16.18-14.043-3.329-.816-18.624 7.593-20.838 4.976-2.214-2.617 8.61-16.309 8.357-19.727-.254-3.419-12.977-15.367-11.172-18.281 1.804-2.914 18.17 3.149 21.344 1.851 3.173-1.297 10.604-17.09 13.934-16.274 3.329.816 2.62 18.255 4.834 20.872 2.215 2.617 19.53 4.804 19.784 8.223z" transform="rotate(33.421 -4305.622 -5446.747) scale(1.10092)"/><path d="M54.731 70.828c-.033.184.64 1.523 1.439 1.674.799.15 1.723-.891 1.757-1.075.033-.184-.824.49-1.624.34-.8-.151-1.538-1.123-1.572-.94z" style="fill:#fff;stroke:none;stroke-width:.26458332px;stroke-linecap:butt;stroke-linejoin:miter;stroke-opacity:1" transform="matrix(8.8652 0 0 8.8652 -448.71 -596.633)"/><path d="M53.725 74.08c.294.03 1.052.124 1.294.392.122.136.038.84.058 1.406.025.446-.068.559-.164.098-.106-.518-.115-1.167-.26-1.28-.288-.221-.883-.352-1.733-.535-.85-.183.511-.11.805-.08z" style="fill:#e6cf00;fill-opacity:1;stroke:none;stroke-width:.26458332px;stroke-linecap:butt;stroke-linejoin:miter;stroke-opacity:1" transform="matrix(8.8652 0 0 8.8652 -448.71 -596.633)"/><path transform="matrix(2.34558 0 0 2.34558 -448.71 -596.633)" d="M235.768 318.598c-.427-.038-1.017.07-1.68.646-1.319 1.146-1.763 2.24-1.768 2.252l.012.022s1.138.542 2.695-.493c1.558-1.034 1.416-2.177 1.416-2.177l-.03-.053a1.425 1.425 0 0 0-.645-.197z" style="fill:#b46600;fill-opacity:1;stroke:none;stroke-width:.99999994px;stroke-linecap:butt;stroke-linejoin:miter;stroke-opacity:1"/><path transform="matrix(2.34558 0 0 2.34558 -448.71 -596.633)" d="M217.664 287.03c-.503.22-1.08.562-1.52 1.1-.228.28-.42.577-.59.868l.907 1.729c.164-.31.34-.613.537-.877.481-.645 1.1-1.011 1.594-1.221zm2.506 4.312c-.532.216-1.18.576-1.66 1.164-.245.3-.453.617-.631.928l.91 1.734c.173-.334.363-.66.574-.943.538-.721 1.231-1.08 1.744-1.274zm2.271 3.904c-.522.218-1.143.574-1.609 1.145-.322.394-.564.809-.771 1.207l.914 1.742c.207-.434.437-.864.71-1.23.518-.694 1.182-1.055 1.69-1.255zm2.166 3.729c-.464.222-.97.547-1.365 1.03-.462.567-.793 1.196-1.023 1.71l.93 1.773c.25-.595.558-1.242.947-1.763a3.795 3.795 0 0 1 1.443-1.15zm2.295 3.943c-.48.222-1.014.554-1.427 1.06a7.625 7.625 0 0 0-1.094 1.864l.932 1.777c.256-.632.593-1.354 1.015-1.92a3.83 3.83 0 0 1 1.504-1.181zm2.323 3.994c-.47.223-.983.55-1.383 1.041a7.272 7.272 0 0 0-1.213 2.18l.924 1.762c.262-.697.635-1.546 1.14-2.223.437-.586.993-.94 1.461-1.158zm2.285 3.932c-.515.22-1.116.57-1.57 1.127a7.263 7.263 0 0 0-1.21 2.172l.924 1.761c.263-.695.637-1.541 1.139-2.215.503-.673 1.147-1.036 1.65-1.24zm2.215 3.808c-.53.217-1.167.574-1.643 1.157a7.38 7.38 0 0 0-1.264 2.318l.928 1.77c.257-.714.627-1.614 1.19-2.368.53-.711 1.212-1.072 1.724-1.267z" style="fill:url(#d);fill-opacity:1;stroke:none;stroke-width:.33229929;stroke-linecap:butt;stroke-linejoin:miter;stroke-miterlimit:4;stroke-dasharray:none;stroke-opacity:1"/></svg>